<svg width="26" height="26" viewBox="0 0 26 26" fill="none" xmlns="http://www.w3.org/2000/svg">
<path opacity="0.3" fill-rule="evenodd" clip-rule="evenodd" d="M13 26C20.1797 26 26 20.1797 26 13C26 5.8203 20.1797 0 13 0C5.8203 0 0 5.8203 0 13C0 20.1797 5.8203 26 13 26ZM8.80414 11.2327C8.53323 11.8535 8.28902 13.2493 8.28902 13.2493L1.16619 12.1376C1.16619 12.1376 1.93761 9.05842 2.57784 7.70731C3.1983 6.39792 4.94827 4.15612 4.94827 4.15612L9.7756 9.84265C9.7756 9.84265 9.02875 10.718 8.80414 11.2327ZM5.72231 3.78092L6.96733 2.86288L10.5504 9.07722L10.0256 9.52248L5.72231 3.78092ZM17.3771 14.8599C17.357 14.9162 16.5973 16.219 16.5973 16.219L21.1235 21.5412C21.1235 21.5412 23.0804 19.1777 23.7376 17.7563C24.2785 16.5864 24.718 13.7672 24.718 13.7672L17.7146 13.0842C17.7146 13.0842 17.7295 13.8713 17.3771 14.8599ZM15.5886 17.0288L16.3462 16.3942L20.4314 22.0576L19.139 23.1153L15.5886 17.0288ZM13 17.0123C15.216 17.0123 17.0123 15.216 17.0123 13C17.0123 10.784 15.216 8.98765 13 8.98765C10.784 8.98765 8.98765 10.784 8.98765 13C8.98765 15.216 10.784 17.0123 13 17.0123ZM16.0494 13.0504C16.0494 14.7346 14.6841 16.0999 13 16.0999C11.3159 16.0999 9.95062 14.7346 9.95062 13.0504C9.95062 11.3661 11.3159 10.0008 13 10.0008C14.6841 10.0008 16.0494 11.3661 16.0494 13.0504ZM13 14.1235C13.6205 14.1235 14.1235 13.6205 14.1235 13C14.1235 12.3795 13.6205 11.8765 13 11.8765C12.3795 11.8765 11.8765 12.3795 11.8765 13C11.8765 13.6205 12.3795 14.1235 13 14.1235Z" fill="black"/>
</svg>
