<svg xmlns="http://www.w3.org/2000/svg" viewBox="0 0 29 29"><defs></defs><title>Asset 2</title><g id="Layer_2" data-name="Layer 2"><g id="Layer_1-2" data-name="Layer 1"><path class="cls-1" d="M14.77,29H14.6c-.61-.13-.7-.3-.47-.95.16-.43.16-.43-.27-.53s-1.11-.22-1.66-.37a4.91,4.91,0,0,0-1.91,0c-.56.09-1.13,0-1.69.11a1,1,0,0,0-.54.23,8.55,8.55,0,0,1-1.18.9l-.25.15a.45.45,0,0,1-.53-.07.54.54,0,0,1-.16-.53A2.51,2.51,0,0,1,6.38,27c.22-.34.23-.35,0-.64a4.83,4.83,0,0,1-.54-.72,2.61,2.61,0,0,1,0-2.47c.12-.29.26-.57.39-.86a.69.69,0,0,0,0-.64,7.52,7.52,0,0,1-.52-1A5.56,5.56,0,0,1,6,15.81c.22-.43.23-.42-.09-.77A6.3,6.3,0,0,1,4.75,13.3a1.7,1.7,0,0,1,0-1.51,8.07,8.07,0,0,0,.55-2.53,7.24,7.24,0,0,1,.44-1.85A.31.31,0,0,0,5.6,7a14.88,14.88,0,0,1-2-1.54A14.23,14.23,0,0,1,.14.59C.08.45.06.29,0,.16V0A.92.92,0,0,1,.63.11,13.13,13.13,0,0,1,3.38,1.55,17.17,17.17,0,0,1,6.51,4.27c.25.29.5.6.74.9a.35.35,0,0,0,.48.14A7.88,7.88,0,0,1,10,4.7a7.73,7.73,0,0,1,4,.52c.86.37.6.39,1.37-.15a13.86,13.86,0,0,1,6-2.44,7.41,7.41,0,0,1,1.15-.08c.34,0,.68-.07,1-.06.12,0,.26,0,.32.14s0,.24-.12.33a13.31,13.31,0,0,1-2,2,13.15,13.15,0,0,1-4.94,2.44c-.28.08-.3.12-.19.4a11.69,11.69,0,0,1,.69,3.42c.2,2,.48,3.92.87,5.85.29,1.45.67,2.87.89,4.34,0,.27.09.29.32.19.56-.24.57-.26.34-.85-.09-.25-.21-.49-.31-.73s-.11-.41.18-.56.55-.33.82-.48.22-.23.14-.43c-.23-.61-.47-1.23-.69-1.85-.13-.36-.1-.45.22-.59.48-.22,1-.42,1.46-.61.3-.12.31-.16.13-.46-.82-1.34-1.64-2.67-2.45-4l-.13-.2c-.16-.3-.14-.44.12-.62l1.16-.83c1.39-1,2.77-2,4.17-2.91.57-.38,1.16-.74,1.75-1.07.25-.14.35-.12.46.15.69,1.63,1.5,3.2,2.14,4.87.23.63.19.75-.4,1-1.69.63-3.37,1.29-5.09,1.79-.21.06-.24.17-.18.38.21.77.44,1.53.65,2.3.12.44.11.46-.28.64s-.94.36-1.41.55c-.29.12-.31.16-.23.48.13.52.3,1,.43,1.54s.06.51-.32.69l-1.14.52c-.26.12-.28.18-.18.48s.2.53.3.79.07.41-.2.53c-.46.2-.93.36-1.39.54-.16.07-.29.15-.28.37a5.78,5.78,0,0,1-.75,2.52,3.56,3.56,0,0,1-1.46,1.67,1.79,1.79,0,0,0-.47.44,6.63,6.63,0,0,1-1.1,1A1.84,1.84,0,0,1,14.77,29Z"/></g></g></svg>