<svg xmlns="http://www.w3.org/2000/svg" xmlns:xlink="http://www.w3.org/1999/xlink" viewBox="0 0 30 30"><defs><style>.cls-1{fill:url(#linear-gradient);}.cls-2{fill:#fff;fill-rule:evenodd;}</style><linearGradient id="linear-gradient" x1="15" y1="32" x2="15" y2="2" gradientTransform="matrix(1, 0, 0, -1, 0, 32)" gradientUnits="userSpaceOnUse"><stop offset="0" stop-color="#a864c7"/><stop offset="1" stop-color="#c261d4"/></linearGradient></defs><title>Asset 1</title><g id="Layer_2" data-name="Layer 2"><g id="Layer_1-2" data-name="Layer 1"><path class="cls-1" d="M15,0h0A15,15,0,0,1,30,15h0A15,15,0,0,1,15,30h0A15,15,0,0,1,0,15H0A15,15,0,0,1,15,0Z"/><path class="cls-2" d="M12.14,23a1.94,1.94,0,0,0,1.68-1.25A1.94,1.94,0,0,0,15.5,23a1.87,1.87,0,0,0,1.58-1.06A1.87,1.87,0,0,0,18.66,23c1.09,0,2-1.19,2-2.65a3.12,3.12,0,0,0-.1-.82A6.27,6.27,0,0,0,23,14.62C23,11,19.64,8,15.5,8S8,11,8,14.62a6.23,6.23,0,0,0,2.3,4.77,3.71,3.71,0,0,0-.13,1C10.17,21.81,11.05,23,12.14,23Zm3.26-4.89c2.45,0,4.44-1.5,4.44-3.36s-2-3.36-4.44-3.36S11,12.89,11,14.75,13,18.11,15.4,18.11Z"/></g></g></svg>